<?xml version="1.0" encoding="UTF-8" standalone="no"?>
<svg
   xmlns:dc="http://purl.org/dc/elements/1.1/"
   xmlns:cc="http://creativecommons.org/ns#"
   xmlns:rdf="http://www.w3.org/1999/02/22-rdf-syntax-ns#"
   xmlns:svg="http://www.w3.org/2000/svg"
   xmlns="http://www.w3.org/2000/svg"
   version="1.1"
   id="svg2"
   xml:space="preserve"
   width="398"
   height="243.29333"
   viewBox="0 0 398 243.29333"><metadata
     id="metadata8"><rdf:RDF><cc:Work
         rdf:about=""><dc:format>image/svg+xml</dc:format><dc:type
           rdf:resource="http://purl.org/dc/dcmitype/StillImage" /><dc:title></dc:title></cc:Work></rdf:RDF></metadata><defs
     id="defs6" /><g
     id="g10"
     transform="matrix(1.3333333,0,0,-1.3333333,0,243.29333)"><g
       id="g12"
       transform="scale(0.1)"><path
         d="M 365.672,807.48 393,936.059 261.973,920.379 240.965,821.539 c -2.235,-10.5 -8.731,-16.391 -19.5,-17.68 l -58.34,-6.98 c -10.773,-1.289 -14.137,3.422 -11.902,13.922 l 76.82,352.589 c 2.23,10.49 7.824,16.28 18.598,17.57 l 58.339,6.98 c 10.77,1.29 15.036,-3.32 12.805,-13.81 l -21.008,-98.84 131.028,15.68 27.332,128.58 c 7.621,35.85 5.121,61.13 -8.403,75.7 -14.414,14.47 -45.761,19.25 -96.918,13.13 l -105.894,-12.67 c -1.793,-0.22 -3.598,-0.44 -5.391,-0.65 L 68.0117,1274.66 42.9141,1156.58 90.4805,1162.27 3.99219,764.199 C -3.63281,728.34 -0.230469,703.18 13.293,688.602 26.8047,674.02 59.0547,669.359 110.211,675.48 l 105.894,12.668 c 51.157,6.122 86.223,18.84 107.704,37.602 20.586,18.66 34.242,45.871 41.863,81.73"
         style="fill:#FB6504;fill-opacity:1;fill-rule:nonzero;stroke:none"
         id="path14" /><path
         d="m 741.922,1218.18 -24.91,-117.2 c -3.907,-18.37 -9.879,-25.89 -22.289,-30.8 l -78.278,-34.94 40.16,188.93 73.598,8.81 c 10.762,1.29 14.137,-3.42 11.719,-14.8 z m 40.828,134.45 -239.621,-28.67 -130.141,-612.249 138.203,16.539 35.325,166.184 36.527,15.449 31.359,-169.281 140.899,16.859 -40.196,209.992 c 23.02,9.57 37.606,16.438 49.52,27.238 20.77,19.529 35.129,45.969 42.754,81.829 l 39.969,188.04 c 7.437,34.99 4.047,60.16 -9.289,75.61 -13.711,13.7 -45.059,18.47 -95.309,12.46"
         style="fill:#FB6504;fill-opacity:1;fill-rule:nonzero;stroke:none"
         id="path16" /><path
         d="M 1004.68,783.371 1134.81,1395.61 994.805,1378.86 864.672,766.609 1004.68,783.371"
         style="fill:#FB6504;fill-opacity:1;fill-rule:nonzero;stroke:none"
         id="path18" /><path
         d="m 1171.44,1284.92 114.88,13.74 -105.04,-494.16 140,16.75 105.04,494.17 114.88,13.74 25.1,118.08 -369.76,-44.25 -25.1,-118.07"
         style="fill:#FB6504;fill-opacity:1;fill-rule:nonzero;stroke:none"
         id="path20" /><path
         d="m 1498.87,842.504 140.01,16.754 130.13,612.242 -140,-16.75 -130.14,-612.246"
         style="fill:#FB6504;fill-opacity:1;fill-rule:nonzero;stroke:none"
         id="path22" /><path
         d="m 2029.14,1272.48 131.93,15.79 27.33,128.57 c 7.62,35.86 4.22,61.03 -9.3,75.61 -13.51,14.57 -45.76,19.24 -96.92,13.12 l -105.89,-12.68 c -50.27,-6.01 -86.23,-18.84 -106.81,-37.5 -21.48,-18.76 -35.14,-45.97 -42.76,-81.83 l -85.89,-404.087 c -7.43,-34.981 -5.12,-61.133 9.29,-75.594 13.53,-14.582 45.77,-19.25 96.03,-13.238 l 105.9,12.672 c 51.15,6.121 87.12,18.953 107.7,37.613 20.58,18.652 35.33,46.847 42.76,81.824 l 27.33,128.58 -131.93,-15.78 -21.01,-98.84 c -2.23,-10.5 -8.73,-16.39 -19.5,-17.68 l -57.43,-6.87 c -10.78,-1.29 -15.04,3.32 -12.81,13.81 l 73.25,344.61 c 2.23,10.49 8.72,16.38 19.5,17.67 l 57.43,6.88 c 10.78,1.29 15.04,-3.31 12.81,-13.81 l -21.01,-98.84"
         style="fill:#FB6504;fill-opacity:1;fill-rule:nonzero;stroke:none"
         id="path24" /><path
         d="m 2453.55,1183.48 -100.39,-44.41 115.88,314.76 z m -317.79,-264.765 140.01,16.754 26.87,68.841 147.55,64.54 -3.9,-112.979 140,16.754 16.16,598.605 -222.58,-26.64 -244.11,-625.875"
         style="fill:#FB6504;fill-opacity:1;fill-rule:nonzero;stroke:none"
         id="path26" /><path
         d="m 2827.02,1116.5 105.04,494.17 -140,-16.75 -130.14,-612.244 297.96,35.654 25.1,118.06 -157.96,-18.89"
         style="fill:#FB6504;fill-opacity:1;fill-rule:nonzero;stroke:none"
         id="path28" /><path
         d="m 578.703,533.09 181.664,21.742 26.188,123.199 -269.688,-32.269 -58.058,-6.953 -58.059,-6.95 -26.187,-123.199 58.058,6.949 L 323.023,0 l 146.086,17.4805 54.895,258.2575 165.75,19.84 26.187,123.203 -165.75,-19.832 28.512,134.141"
         style="fill:#FB6504;fill-opacity:1;fill-rule:nonzero;stroke:none"
         id="path30" /><path
         d="M 1066.25,575.422 989.82,215.871 c -2.328,-10.961 -9.105,-17.109 -20.347,-18.461 l -60.86,-7.281 c -10.308,-1.231 -14.758,3.582 -12.429,14.531 l 76.425,359.559 c 2.329,10.953 9.106,17.101 19.414,18.332 l 60.857,7.281 c 11.24,1.348 15.7,-3.453 13.37,-14.41 z m 143.91,127.508 c -15.04,15.101 -48.68,19.961 -101.12,13.691 L 989.172,702.281 C 935.797,695.891 899.207,682.621 876.797,663.039 855.316,643.57 841.066,615.18 833.113,577.762 L 743.5,156.148 c -7.762,-36.507 -5.348,-63.7769 8.762,-78.9996 15.039,-15.0976 47.75,-20.0664 101.125,-13.6875 l 119.867,14.3477 c 52.446,6.2695 89.966,19.6523 112.376,39.2304 21.48,19.481 35.92,48.77 43.68,85.281 l 89.62,421.61 c 7.95,37.422 5.34,63.789 -8.77,79"
         style="fill:#FB6504;fill-opacity:1;fill-rule:nonzero;stroke:none"
         id="path32" /><path
         d="M 1539.5,632.051 1513.51,509.77 c -4.07,-19.168 -10.31,-27.02 -23.26,-32.141 l -81.67,-36.449 41.9,197.121 76.78,9.187 c 11.24,1.352 14.77,-3.566 12.24,-15.437 z m 142.05,127.289 c -14.31,14.289 -47.02,19.281 -99.45,13 l -250.02,-29.918 -135.79,-638.82 144.2,17.257 36.86,173.391 38.11,16.121 32.73,-176.621 147.01,17.59 -41.94,219.109 c 24.02,9.981 39.23,17.141 51.66,28.41 21.68,20.379 36.66,47.961 44.61,85.379 l 41.71,196.211 c 7.76,36.512 4.22,62.77 -9.69,78.891"
         style="fill:#FB6504;fill-opacity:1;fill-rule:nonzero;stroke:none"
         id="path34" /><path
         d="m 1979.75,580.672 137.66,16.476 28.51,134.153 c 7.96,37.418 4.41,63.679 -9.7,78.89 -14.1,15.204 -47.75,20.075 -101.13,13.688 L 1924.6,810.66 c -52.44,-6.281 -89.96,-19.672 -111.44,-39.129 -22.41,-19.582 -36.66,-47.972 -44.61,-85.39 L 1678.93,264.52 c -7.76,-36.5 -5.35,-63.782 9.69,-78.879 14.11,-15.211 47.75,-20.082 100.2,-13.813 l 110.49,13.231 c 53.37,6.382 90.9,19.769 112.38,39.242 21.48,19.461 36.86,48.879 44.62,85.379 l 28.51,134.16 -137.66,-16.481 -21.92,-103.129 c -2.32,-10.941 -9.1,-17.089 -20.34,-18.441 l -59.93,-7.168 c -11.24,-1.34 -15.69,3.469 -13.36,14.41 l 76.42,359.571 c 2.33,10.949 9.11,17.089 20.35,18.437 l 59.93,7.172 c 11.24,1.348 15.69,-3.449 13.36,-14.41 l -21.92,-103.129"
         style="fill:#FB6504;fill-opacity:1;fill-rule:nonzero;stroke:none"
         id="path36" /><path
         d="m 2148.08,338.449 -0.94,-0.109 -26.18,-123.199 328.69,39.339 26.18,123.192 -181.66,-21.742 28.71,135.07 156.37,18.711 26.19,123.199 -156.38,-18.711 28.52,134.153 181.66,21.726 26.19,123.207 -327.75,-39.219 -109.6,-515.617"
         style="fill:#FB6504;fill-opacity:1;fill-rule:nonzero;stroke:none"
         id="path38" /><path
         d="m 2239.91,1824.75 -3.53,-6.16 c -39.65,-69.82 -85.46,-117.65 -136.31,-141.76 -8.16,-3.87 -16.09,-6.88 -24.12,-9.79 -10.44,-3.77 -30.61,-7.59 -31.08,-7.66 C 1401.06,1553.5 679.461,1434.93 563.051,1415.5 l -6.965,-32.7 c 39.254,4.95 2046.364,257.61 2046.364,257.61 l -362.54,184.34"
         style="fill:#FB6504;fill-opacity:1;fill-rule:nonzero;stroke:none"
         id="path40" /></g></g></svg>
